<?xml version="1.0" standalone="no"?>
<!DOCTYPE svg PUBLIC "-//W3C//DTD SVG 20010904//EN"
 "http://www.w3.org/TR/2001/REC-SVG-20010904/DTD/svg10.dtd">
<svg version="1.0" xmlns="http://www.w3.org/2000/svg"
 width="150.000000pt" height="150.000000pt" viewBox="0 0 150.000000 150.000000"
 preserveAspectRatio="xMidYMid meet">
<metadata>
Created by potrace 1.11, written by Peter Selinger 2001-2013
</metadata>
<g transform="translate(0.000000,150.000000) scale(0.100000,-0.100000)"
fill="#000000" stroke="none">
<path d="M735 1370 c-21 -41 -85 -206 -85 -220 0 -21 137 6 342 67 l158 48
-52 32 c-84 53 -169 81 -300 98 -45 6 -48 5 -63 -25z"/>
<path d="M585 1375 c-97 -26 -225 -93 -225 -116 0 -24 70 -76 121 -92 106 -32
107 -32 134 50 14 40 36 95 49 123 l24 50 -26 -1 c-15 0 -49 -6 -77 -14z"/>
<path d="M257 1170 c-25 -27 -62 -84 -84 -125 l-38 -75 -67 0 -68 0 0 -235 0
-235 75 0 c60 0 75 -3 75 -15 0 -8 4 -15 9 -15 5 0 11 7 15 15 5 15 56 22 56
8 0 -4 -7 -26 -16 -50 -16 -40 -15 -43 5 -77 29 -46 136 -145 194 -180 44 -25
167 -76 186 -76 5 0 -4 38 -20 84 -21 65 -59 255 -59 300 0 4 12 6 27 4 27 -3
28 -6 39 -88 12 -89 42 -209 68 -272 20 -47 56 -55 171 -39 119 17 270 74 305
116 7 9 -11 40 -63 108 -40 53 -87 112 -105 131 -17 20 -32 38 -32 41 0 15 69
3 81 -14 8 -10 50 -65 93 -122 l80 -103 56 61 c31 34 69 89 86 122 l29 60 73
0 72 1 0 235 0 235 -67 0 -68 1 -32 67 c-18 37 -54 91 -80 121 -45 51 -48 53
-88 48 -22 -3 -94 -23 -160 -43 -142 -44 -274 -74 -331 -74 l-41 0 -13 -60
c-12 -57 -14 -60 -42 -60 -23 0 -28 4 -24 18 3 9 9 36 15 59 l9 43 -37 6 c-92
15 -189 64 -212 106 -14 27 -23 23 -72 -32z m6 -259 c11 -1 9 -79 -3 -86 -5
-3 -10 -46 -10 -96 0 -81 2 -89 19 -89 11 0 23 5 26 10 3 6 24 10 46 10 l39 0
0 -55 0 -56 -127 3 -128 3 -3 34 c-2 18 1 38 7 44 14 14 15 184 1 192 -13 8
-13 68 -1 81 8 7 70 9 134 5z m261 -3 c2 -1 22 -34 44 -73 35 -59 42 -66 42
-42 0 15 -4 27 -10 27 -5 0 -10 20 -10 45 0 25 5 45 10 46 6 0 35 0 65 0 30 0
60 0 65 0 6 -1 10 -19 10 -40 0 -22 -4 -43 -10 -46 -5 -3 -10 -46 -10 -96 0
-53 4 -89 10 -89 6 0 10 -20 10 -45 l0 -46 -62 3 -62 3 -40 68 c-34 55 -42 64
-44 45 -2 -12 1 -24 7 -26 6 -2 11 -24 11 -48 l0 -45 -72 3 -73 3 -3 43 c-2
25 1 42 7 42 14 0 15 177 1 185 -13 8 -13 82 0 87 12 4 110 1 114 -4z m473
-30 c28 -27 33 -39 31 -68 -3 -35 -3 -35 -55 -38 -51 -3 -53 -2 -53 22 0 22
-4 26 -30 26 l-31 0 3 -87 c3 -87 3 -88 30 -91 23 -3 27 1 30 25 3 25 7 28 47
31 28 2 47 -1 52 -10 18 -27 9 -68 -22 -103 -31 -34 -32 -35 -109 -35 -77 0
-78 0 -104 34 -25 33 -26 41 -26 152 0 117 0 118 30 149 27 28 33 30 101 28
66 -1 74 -4 106 -35z m307 32 c5 0 6 -25 3 -55 -4 -43 0 -71 19 -128 13 -40
31 -77 40 -84 10 -7 14 -24 12 -50 l-3 -38 -73 -3 -74 -3 4 51 c3 48 2 50 -22
50 -24 0 -25 -2 -22 -50 l4 -51 -74 3 -73 3 -3 43 c-2 30 1 42 10 42 23 0 68
156 61 214 -4 29 -2 51 5 55 8 5 103 6 186 1z"/>
<path d="M140 871 c0 -17 5 -33 10 -36 6 -3 10 -50 10 -106 0 -59 -4 -99 -10
-99 -5 0 -10 -13 -10 -30 l0 -30 115 0 115 0 0 40 c0 38 -2 40 -30 40 -16 0
-30 -5 -30 -11 0 -6 -16 -9 -37 -7 l-38 3 -3 94 c-2 56 1 98 8 105 5 5 10 23
10 38 0 27 -1 28 -55 28 -54 0 -55 0 -55 -29z m100 1 c0 -10 -5 -23 -10 -28
-7 -7 -10 -52 -8 -115 l3 -104 48 -3 c28 -2 47 1 47 7 0 6 9 11 20 11 16 0 20
-7 20 -30 l0 -30 -105 0 c-98 0 -105 1 -105 20 0 11 5 20 10 20 6 0 10 45 10
115 0 70 -4 115 -10 115 -5 0 -10 9 -10 20 0 17 7 20 45 20 37 0 45 -3 45 -18z"/>
<path d="M420 871 c0 -17 5 -33 10 -36 6 -3 10 -50 10 -106 0 -59 -4 -99 -10
-99 -5 0 -10 -13 -10 -30 l0 -30 60 0 c56 0 60 2 60 23 0 13 -5 28 -11 34 -5
5 -9 32 -7 59 l3 49 48 -82 49 -83 49 0 c48 0 49 1 49 29 0 17 -4 33 -10 36
-6 3 -10 48 -10 100 0 52 4 97 10 100 6 3 10 19 10 36 0 29 -1 29 -55 29 -64
0 -78 -16 -52 -60 15 -25 20 -110 7 -110 -3 0 -28 38 -55 85 l-50 85 -47 0
c-46 0 -48 -1 -48 -29z m146 -81 c33 -55 61 -100 64 -100 3 0 6 31 8 69 3 53
0 72 -13 85 -28 27 -11 46 40 46 38 0 45 -3 45 -19 0 -11 -4 -23 -10 -26 -6
-4 -10 -53 -10 -116 0 -66 4 -109 10 -109 6 0 10 -9 10 -21 0 -18 -5 -20 -42
-17 -41 3 -43 4 -98 96 l-55 92 -3 -71 c-2 -41 2 -77 8 -83 24 -24 10 -36 -40
-36 -43 0 -50 3 -50 20 0 11 5 20 10 20 6 0 10 43 10 109 0 63 -4 112 -10 116
-5 3 -10 15 -10 26 0 15 7 19 39 19 39 0 39 0 97 -100z"/>
<path d="M797 872 c-26 -27 -27 -33 -27 -136 0 -93 3 -112 21 -137 19 -28 24
-29 98 -29 68 0 80 3 99 23 13 14 22 36 22 55 0 30 -2 32 -35 32 -19 0 -35 -4
-35 -8 0 -5 14 -7 30 -4 26 4 30 1 30 -20 0 -14 -10 -34 -23 -46 -19 -18 -35
-22 -88 -22 -56 0 -69 4 -87 23 -20 21 -22 34 -22 129 0 91 3 109 21 132 18
23 27 26 88 26 58 0 71 -3 89 -23 12 -13 22 -36 22 -51 0 -26 -3 -28 -30 -24
-16 3 -30 1 -30 -4 0 -4 16 -8 35 -8 33 0 35 2 35 33 0 23 -8 41 -28 60 -25
24 -36 27 -93 27 -58 0 -68 -3 -92 -28z"/>
<path d="M851 836 c-8 -9 -11 -48 -9 -112 l3 -99 41 -3 c27 -2 45 2 54 13 8
10 9 15 1 15 -6 0 -11 -5 -11 -11 0 -6 -16 -9 -37 -7 l-38 3 0 100 0 100 33 3
c22 2 34 -2 38 -12 3 -9 10 -16 15 -16 6 0 5 9 -1 20 -13 24 -71 28 -89 6z"/>
<path d="M1133 859 c6 -44 -45 -229 -63 -229 -6 0 -10 -13 -10 -30 0 -30 0
-30 56 -30 l56 0 -2 33 c-3 55 -2 57 40 57 42 0 43 -2 40 -57 l-2 -33 56 0
c55 0 56 0 56 29 0 16 -4 31 -9 33 -5 2 -22 44 -39 95 -22 67 -29 102 -25 132
l6 41 -83 0 -83 0 6 -41z m147 12 c0 -11 -5 -21 -10 -23 -11 -3 53 -205 70
-222 6 -6 10 -18 10 -28 0 -15 -8 -18 -46 -18 -46 0 -46 0 -41 30 10 49 0 60
-53 60 -53 0 -63 -11 -53 -60 5 -30 5 -30 -41 -30 -39 0 -46 3 -46 19 0 11 4
21 8 23 14 5 83 223 72 226 -5 2 -10 12 -10 23 0 17 8 19 70 19 62 0 70 -2 70
-19z"/>
<path d="M1192 761 c-17 -55 -15 -61 18 -61 17 0 30 5 30 11 0 21 -23 89 -30
89 -4 0 -12 -17 -18 -39z m33 -28 c5 -19 3 -23 -15 -23 -16 0 -20 4 -16 16 3
9 6 23 6 32 0 21 15 5 25 -25z"/>
</g>
</svg>
